<?xml version="1.0" encoding="UTF-8" standalone="no"?>
<!-- Created with Inkscape (http://www.inkscape.org/) -->

<svg
   width="16"
   height="16"
   viewBox="0 0 16 16"
   version="1.1"
   id="SVGRoot"
   sodipodi:docname="circle_tick.svg"
   inkscape:version="1.2.2 (b0a8486541, 2022-12-01)"
   inkscape:export-filename="Ciruclo X.svg"
   inkscape:export-xdpi="192"
   inkscape:export-ydpi="192"
   xml:space="preserve"
   xmlns:inkscape="http://www.inkscape.org/namespaces/inkscape"
   xmlns:sodipodi="http://sodipodi.sourceforge.net/DTD/sodipodi-0.dtd"
   xmlns="http://www.w3.org/2000/svg"
   xmlns:svg="http://www.w3.org/2000/svg"><sodipodi:namedview
     id="namedview100"
     pagecolor="#505050"
     bordercolor="#eeeeee"
     borderopacity="1"
     inkscape:showpageshadow="0"
     inkscape:pageopacity="0"
     inkscape:pagecheckerboard="0"
     inkscape:deskcolor="#505050"
     inkscape:document-units="px"
     showgrid="true"
     inkscape:zoom="32"
     inkscape:cx="5.5625"
     inkscape:cy="10.171875"
     inkscape:window-width="1920"
     inkscape:window-height="1003"
     inkscape:window-x="0"
     inkscape:window-y="0"
     inkscape:window-maximized="1"
     inkscape:current-layer="layer1"><inkscape:grid
       type="xygrid"
       id="grid106"
       originx="0"
       originy="0" /></sodipodi:namedview><defs
     id="defs95" /><g
     inkscape:label="Capa 1"
     inkscape:groupmode="layer"
     id="layer1"
     transform="translate(581.40967,-104.91196)"><circle
       style="fill:#20b2af;fill-opacity:1;stroke-width:0;stroke:none;stroke-opacity:1;stroke-dasharray:none"
       id="path217"
       r="8"
       cy="112.91196"
       cx="-573.40967"
       inkscape:label="path217" /><path
       style="fill:#ff7f2a;fill-opacity:1;stroke:none;stroke-width:0;stroke-opacity:1;stroke-dasharray:none"
       id="circle3710"
       sodipodi:type="arc"
       sodipodi:cx="-573.40967"
       sodipodi:cy="112.91196"
       sodipodi:rx="8"
       sodipodi:ry="8"
       sodipodi:start="3.1415927"
       sodipodi:end="4.712389"
       sodipodi:arc-type="slice"
       d="m -581.40967,112.91196 a 8,8 0 0 1 8,-8 v 8 z" /><circle
       style="fill:#ffffff;fill-opacity:1;stroke-width:0;stroke-dasharray:none"
       id="path2353"
       cx="-573.40967"
       cy="112.91196"
       r="6.7096772"
       inkscape:label="path2353" /><path
       fill-rule="evenodd"
       clip-rule="evenodd"
       d="m -569.4998,110.00957 c 0.12015,0.13018 0.12015,0.34125 0,0.47142 l -4.9231,5.33332 c -0.12016,0.13019 -0.31496,0.13019 -0.43512,0 l -2.46155,-2.66667 c -0.12016,-0.13014 -0.12016,-0.34125 0,-0.47139 0.12016,-0.13021 0.31498,-0.13021 0.43515,0 l 2.24396,2.43096 4.70551,-5.09764 c 0.12015,-0.13016 0.31495,-0.13016 0.43515,0 z"
       fill="#030d45"
       id="path6167"
       style="display:none;stroke-width:0.5" /><rect
       style="fill:#20b2af;fill-opacity:1;stroke:#20b2af;stroke-width:0.52612;stroke-opacity:1"
       id="rect8251"
       width="0.51707983"
       height="8.4495602"
       x="-325.01743"
       y="480.2157"
       ry="0.25853992"
       transform="rotate(45)"
       rx="0" /><path
       style="fill:#20b2af;fill-opacity:1;stroke:#ff7f2a;stroke-width:0.003;stroke-opacity:1;stroke-dasharray:none"
       d="M 4.8242191,9.9531254 3.2402388,8.3691414 3.6083766,8.0010036 3.9765145,7.6328657 5.1933462,8.849636 c 0.6692574,0.6692236 1.2181458,1.21721 1.2197519,1.217747 0.00161,5.38e-4 0.7385632,-0.7346675 1.6376828,-1.6337888 L 9.6855434,6.7988281 h 0.5341816 0.534181 V 6.9992809 7.1997337 L 8.5844152,9.3684215 C 7.3911953,10.5612 6.4134114,11.537109 6.411562,11.537109 c -0.00185,0 -0.7161536,-0.712793 -1.5873429,-1.5839836 z"
       id="path1978"
       transform="translate(-581.40967,104.91196)" /><rect
       style="fill:#ff7f2a;fill-opacity:1;stroke:#ff7f2a;stroke-width:0.405951;stroke-opacity:1"
       id="rect8257"
       width="0.63724858"
       height="4.0818887"
       x="-488.72739"
       y="-328.52417"
       ry="0"
       transform="rotate(-45,3.3435719e-6,-4.6955671e-6)"
       rx="0" /></g></svg>
