<?xml version="1.0" encoding="UTF-8" standalone="no"?>
<!-- Uploaded to: SVG Repo, www.svgrepo.com, Generator: SVG Repo Mixer Tools -->

<svg
   fill="#000000"
   width="13.04735"
   height="16"
   viewBox="0 0 13.04735 15.999999"
   version="1.1"
   id="svg4"
   sodipodi:docname="trashcan.svg"
   inkscape:version="1.2.2 (b0a8486541, 2022-12-01)"
   xmlns:inkscape="http://www.inkscape.org/namespaces/inkscape"
   xmlns:sodipodi="http://sodipodi.sourceforge.net/DTD/sodipodi-0.dtd"
   xmlns="http://www.w3.org/2000/svg"
   xmlns:svg="http://www.w3.org/2000/svg">
  <defs
     id="defs8" />
  <sodipodi:namedview
     id="namedview6"
     pagecolor="#505050"
     bordercolor="#eeeeee"
     borderopacity="1"
     inkscape:showpageshadow="0"
     inkscape:pageopacity="0"
     inkscape:pagecheckerboard="0"
     inkscape:deskcolor="#505050"
     showgrid="false"
     inkscape:zoom="22.627417"
     inkscape:cx="-4.2868349"
     inkscape:cy="9.656427"
     inkscape:window-width="1920"
     inkscape:window-height="1003"
     inkscape:window-x="0"
     inkscape:window-y="0"
     inkscape:window-maximized="1"
     inkscape:current-layer="svg4" />
  <path
     d="M 11.850342,4.7282048 H 1.1970056 q -0.23940187,0 -0.41894615,0.1795523 -0.17955288,0.1795565 -0.17955288,0.418954 L 1.3566032,15.4015 q 0.019924,0.259338 0.2394042,0.428899 Q 1.8154524,16 2.1945137,16 h 8.6583303 q 0.359094,0 0.578543,-0.169601 0.219431,-0.169561 0.259355,-0.428899 L 12.448839,5.3267111 q 0,-0.2393975 -0.179553,-0.418954 Q 12.089751,4.7282048 11.850342,4.7282048 Z M 3.4114618,14.802988 q -0.1994961,0 -0.3590964,-0.179552 Q 2.8927638,14.44389 2.8927638,14.204487 L 2.3740583,6.5037639 q 0,-0.2394005 0.1795523,-0.408973 0.1795533,-0.169581 0.4189539,-0.169581 0.2394012,0 0.4189542,0.169581 0.1795445,0.1695725 0.1795445,0.408973 l 0.359107,7.7007231 q 0,0.239403 -0.1496303,0.418949 -0.1496208,0.179552 -0.3690781,0.179552 z m 3.6309119,-0.618452 q 0,0.259354 -0.1496232,0.4389 -0.1496237,0.179552 -0.3690751,0.179552 -0.2194517,0 -0.3690754,-0.179552 -0.1496228,-0.179546 -0.1496228,-0.4389 L 5.9251844,6.5037639 q 0,-0.2394005 0.1795479,-0.408973 0.1795503,-0.169581 0.4189507,-0.169581 0.2394019,0 0.4189541,0.169581 0.1795446,0.1695725 0.1795446,0.408973 z m 3.1122093,0.01996 q 0,0.239404 -0.1595951,0.418946 -0.1596032,0.17955 -0.3590939,0.17955 -0.2194564,0 -0.3690787,-0.179553 Q 9.1171786,14.443912 9.1171786,14.204508 L 9.476287,6.5037731 q 0,-0.2394033 0.1795471,-0.4089754 0.1795506,-0.1695813 0.4189549,-0.1695813 0.239398,0 0.418955,0.1695813 0.179552,0.1695721 0.179552,0.4089754 z M 12.169551,2.134673 8.5984828,1.5361739 Q 8.3590832,1.4962391 8.2992335,1.2369181 L 8.1396369,0.57857086 Q 8.0598416,0.17956908 7.860329,0.05986467 7.7406326,0 7.4214324,0 H 5.625918 Q 5.3067178,0 5.1670721,0.05986467 4.9675733,0.17956908 4.9077136,0.57857086 L 4.7481164,1.236918 Q 4.7082587,1.4962707 4.4488676,1.5361739 L 0.87780392,2.134673 Q 0.4987541,2.1945378 0.24938135,2.4239508 0,2.6533826 0,2.9925244 V 3.5511275 Q 0,3.7306797 0.12967662,3.8503761 0.25935344,3.9700832 0.43890589,3.9700832 H 12.608447 q 0.179556,0 0.30923,-0.1197081 Q 13.04735,3.7306796 13.04735,3.5511275 V 2.9925244 q 0,-0.3391418 -0.249414,-0.5685736 Q 12.548629,2.1945212 12.169551,2.134673 Z"
     id="path2"
     style="fill:#20b2af;fill-opacity:1;stroke:none;stroke-width:0;stroke-dasharray:none;stroke-opacity:1" />
</svg>
