<?xml version="1.0" encoding="UTF-8" standalone="no"?>
<!-- Uploaded to: SVG Repo, www.svgrepo.com, Generator: SVG Repo Mixer Tools -->

<svg
   fill="#000000"
   width="16"
   height="19.615309"
   viewBox="0 0 16 19.615309"
   version="1.1"
   id="svg4"
   sodipodi:docname="trashcan.svg"
   inkscape:version="1.2.2 (b0a8486541, 2022-12-01)"
   xmlns:inkscape="http://www.inkscape.org/namespaces/inkscape"
   xmlns:sodipodi="http://sodipodi.sourceforge.net/DTD/sodipodi-0.dtd"
   xmlns="http://www.w3.org/2000/svg"
   xmlns:svg="http://www.w3.org/2000/svg">
  <defs
     id="defs8" />
  <sodipodi:namedview
     id="namedview6"
     pagecolor="#505050"
     bordercolor="#eeeeee"
     borderopacity="1"
     inkscape:showpageshadow="0"
     inkscape:pageopacity="0"
     inkscape:pagecheckerboard="0"
     inkscape:deskcolor="#505050"
     showgrid="false"
     inkscape:zoom="33.52"
     inkscape:cx="13.365155"
     inkscape:cy="10.859189"
     inkscape:window-width="1920"
     inkscape:window-height="1008"
     inkscape:window-x="0"
     inkscape:window-y="0"
     inkscape:window-maximized="1"
     inkscape:current-layer="svg4" />
  <path
     d="M 14.522137,5.801571 H 1.4778631 q -0.2931299,0 -0.5129698,0.2198499 Q 0.74504341,6.2412708 0.74504341,6.5344007 L 1.673283,18.870275 q 0.0244,0.31755 0.2931298,0.52519 0.2686999,0.20763 0.7328297,0.20763 H 13.300758 q 0.439699,0 0.708399,-0.20763 0.2687,-0.20764 0.31756,-0.52519 l 0.92824,-12.3358743 q 0,-0.2931299 -0.21985,-0.5129798 Q 14.815267,5.801571 14.522137,5.801571 Z M 4.1893118,18.137445 q -0.2442699,0 -0.4396898,-0.21985 -0.1954199,-0.21984 -0.1954199,-0.512969 L 2.9190824,7.97562 q 0,-0.2931299 0.2198499,-0.5007598 0.2198499,-0.2076399 0.5129797,-0.2076399 0.2931299,0 0.5129798,0.2076399 0.2198399,0.2076299 0.2198399,0.5007598 l 0.4396998,9.429006 q 0,0.293129 -0.1832099,0.512969 -0.1831999,0.21985 -0.4519098,0.21985 z m 4.4457979,-0.757249 q 0,0.317559 -0.1831999,0.537399 Q 8.2686999,18.137445 8,18.137445 q -0.2686999,0 -0.4519098,-0.21985 -0.1831999,-0.21984 -0.1831999,-0.537399 l -0.0977,-9.404576 q 0,-0.2931299 0.2198399,-0.5007598 0.2198499,-0.2076399 0.5129798,-0.2076399 0.2931299,0 0.5129798,0.2076399 0.2198399,0.2076299 0.2198399,0.5007598 z m 3.8106883,0.0244 q 0,0.293129 -0.19542,0.512969 -0.19542,0.21985 -0.43969,0.21985 -0.26871,0 -0.45191,-0.21985 -0.183209,-0.21984 -0.183209,-0.512969 L 11.615268,7.97559 q 0,-0.2931299 0.21984,-0.5007598 0.21985,-0.2076399 0.51298,-0.2076399 0.29313,0 0.51298,0.2076399 0.21985,0.2076299 0.21985,0.5007598 z M 14.912977,2.6259725 10.540459,1.8931529 q -0.29313,-0.0489 -0.36641,-0.3664199 L 9.9786291,0.72063342 Q 9.8809291,0.23208365 9.6366392,0.08551372 9.4900793,0.01221375 9.0992395,0.01221375 h -2.198479 q -0.3908398,0 -0.5618297,0.07329997 -0.2442699,0.14656993 -0.3175599,0.6351197 L 5.825951,1.526733 Q 5.777151,1.8442929 5.4595412,1.8931529 L 1.0870232,2.6259725 Q 0.62290346,2.6992725 0.31756361,2.9801724 0.01221375,3.2610922 0.01221375,3.676352 v 0.6839697 q 0,0.2198499 0.15877993,0.3664098 0.15877992,0.14657 0.37862982,0.14657 H 15.450377 q 0.219849,0 0.378629,-0.14657 0.15878,-0.1465599 0.15878,-0.3664098 V 3.676352 q 0,-0.4152598 -0.30535,-0.6961796 -0.305339,-0.2809199 -0.769459,-0.3541999 z"
     id="path2"
     style="fill:#ff7f2a;fill-opacity:1;stroke:#ff7f2a;stroke-width:0.0244275;stroke-opacity:1" />
</svg>
